<svg width="32" height="32" viewBox="0 0 32 32" fill="none" xmlns="http://www.w3.org/2000/svg">
<path d="M29.0001 27.586L21.4481 20.034C23.2629 17.8553 24.1679 15.0608 23.9748 12.2319C23.7817 9.40296 22.5054 6.75738 20.4114 4.84551C18.3173 2.93363 15.5669 1.90267 12.7321 1.96708C9.89729 2.03149 7.19647 3.18632 5.19146 5.19133C3.18644 7.19635 2.03161 9.89717 1.9672 12.732C1.90279 15.5667 2.93376 18.3172 4.84563 20.4112C6.75751 22.5052 9.40309 23.7816 12.232 23.9747C15.061 24.1678 17.8554 23.2628 20.0341 21.448L27.5861 29L29.0001 27.586ZM4.00012 13C4.00012 11.22 4.52796 9.4799 5.51689 7.99986C6.50582 6.51982 7.91143 5.36627 9.55596 4.68508C11.2005 4.00389 13.0101 3.82566 14.7559 4.17293C16.5018 4.52019 18.1054 5.37736 19.3641 6.63603C20.6227 7.89471 21.4799 9.49835 21.8272 11.2442C22.1745 12.99 21.9962 14.7996 21.315 16.4441C20.6338 18.0887 19.4803 19.4943 18.0002 20.4832C16.5202 21.4722 14.7801 22 13.0001 22C10.614 21.9973 8.32633 21.0483 6.63908 19.361C4.95182 17.6738 4.00276 15.3861 4.00012 13V13Z" fill="#5C6A7E"/>
</svg>
